<svg xmlns="http://www.w3.org/2000/svg" width="1200" height="820" viewBox="0 0 1200 820">
  <defs><linearGradient id="b" x1="0" y1="1" x2="1" y2="0"><stop stop-color="#171126"/><stop offset=".55" stop-color="#553270"/><stop offset="1" stop-color="#f07b5c"/></linearGradient><radialGradient id="g"><stop stop-color="#ffdb90" stop-opacity=".85"/><stop offset="1" stop-color="#ffdb90" stop-opacity="0"/></radialGradient></defs>
  <rect width="1200" height="820" fill="url(#b)"/><circle cx="930" cy="220" r="390" fill="url(#g)"/><path d="M934 110c142 0 241 108 241 244s-99 244-241 244c-117 0-220-76-220-181 0-83 60-139 145-139 69 0 124 43 124 101 0 48-39 83-86 83-39 0-69-25-69-59 0-26 20-45 46-45" fill="none" stroke="#fff" stroke-opacity=".72" stroke-width="34" stroke-linecap="round"/><circle cx="934" cy="354" r="23" fill="#ffdb90"/><path d="M0 710c180-133 370-171 554-54 170 108 355 92 646-46v210H0z" fill="#100c1b" fill-opacity=".72"/>
  <text x="72" y="104" fill="#ffd892" font-size="28" font-family="Arial,'Microsoft YaHei',sans-serif" font-weight="700" letter-spacing="7">GF CURATED ACCOUNT</text><text x="70" y="212" fill="#fff" font-size="70" font-family="Arial,'Microsoft YaHei',sans-serif" font-weight="900">超自然行动组</text><text x="74" y="278" fill="#f6e3ff" font-size="34" font-family="Arial,'Microsoft YaHei',sans-serif">幻梦 · 耀世 · 典藏优选</text><rect x="72" y="332" width="356" height="66" rx="33" fill="#fff" fill-opacity=".11" stroke="#ffd892"/><text x="116" y="376" fill="#fff" font-size="27" font-family="Arial,'Microsoft YaHei',sans-serif" font-weight="700">库存下单前实时复核</text><text x="74" y="744" fill="#fff" fill-opacity=".72" font-size="24" font-family="Arial,'Microsoft YaHei',sans-serif">分类展示封面 · 具体配置以商品参数为准</text>
</svg>
