<svg xmlns="http://www.w3.org/2000/svg" width="1200" height="820" viewBox="0 0 1200 820">
  <defs><linearGradient id="b" x1="0" y1="0" x2="1" y2="1"><stop stop-color="#11151f"/><stop offset=".6" stop-color="#29233d"/><stop offset="1" stop-color="#ff4655"/></linearGradient><radialGradient id="g"><stop stop-color="#ff7883" stop-opacity=".75"/><stop offset="1" stop-color="#ff7883" stop-opacity="0"/></radialGradient></defs>
  <rect width="1200" height="820" fill="url(#b)"/><circle cx="940" cy="235" r="410" fill="url(#g)"/><path d="M714 160l126 298 76-179 132-119-170 386h-80L624 160z" fill="#fff" fill-opacity=".86"/><path d="M0 710l410-230 202 140 235-86 353 175v111H0z" fill="#0d1018" fill-opacity=".75"/><g fill="none" stroke="#fff" stroke-opacity=".16"><path d="M470 0l300 820M650 0l300 820M830 0l300 820" stroke-width="2"/></g>
  <text x="72" y="104" fill="#ff8993" font-size="28" font-family="Arial,'Microsoft YaHei',sans-serif" font-weight="700" letter-spacing="7">GF CURATED ACCOUNT</text><text x="70" y="212" fill="#fff" font-size="78" font-family="Arial,'Microsoft YaHei',sans-serif" font-weight="900">无畏契约</text><text x="74" y="278" fill="#f4dde2" font-size="34" font-family="Arial,'Microsoft YaHei',sans-serif">刀皮 · 枪皮 · 精选收藏</text><rect x="72" y="332" width="356" height="66" rx="33" fill="#fff" fill-opacity=".11" stroke="#ff8993"/><text x="116" y="376" fill="#fff" font-size="27" font-family="Arial,'Microsoft YaHei',sans-serif" font-weight="700">库存下单前实时复核</text><text x="74" y="744" fill="#fff" fill-opacity=".72" font-size="24" font-family="Arial,'Microsoft YaHei',sans-serif">分类展示封面 · 具体配置以商品参数为准</text>
</svg>
