<svg xmlns="http://www.w3.org/2000/svg" width="1200" height="820" viewBox="0 0 1200 820">
  <defs><linearGradient id="b" x1="0" y1="0" x2="1" y2="1"><stop stop-color="#220c14"/><stop offset=".55" stop-color="#791f2e"/><stop offset="1" stop-color="#f0a94f"/></linearGradient><radialGradient id="g"><stop stop-color="#ffe8a6" stop-opacity=".9"/><stop offset="1" stop-color="#ffe8a6" stop-opacity="0"/></radialGradient></defs>
  <rect width="1200" height="820" fill="url(#b)"/><circle cx="920" cy="240" r="390" fill="url(#g)"/><path d="M840 88l205 118-40 256-165 152-165-152-40-256z" fill="#fff" fill-opacity=".09" stroke="#ffd881" stroke-width="4"/><path d="M840 166l85 134-85 153-85-153z" fill="#ffd881" fill-opacity=".75"/><path d="M0 690c270-170 510-125 730 0s345 95 470 5v125H0z" fill="#0f1018" fill-opacity=".65"/>
  <text x="72" y="104" fill="#ffd987" font-size="28" font-family="Arial,'Microsoft YaHei',sans-serif" font-weight="700" letter-spacing="7">GF CURATED ACCOUNT</text><text x="70" y="212" fill="#fff" font-size="78" font-family="Arial,'Microsoft YaHei',sans-serif" font-weight="900">王者荣耀</text><text x="74" y="278" fill="#ffe7c0" font-size="34" font-family="Arial,'Microsoft YaHei',sans-serif">高性价比账号 · 精选资料</text><rect x="72" y="332" width="356" height="66" rx="33" fill="#fff" fill-opacity=".12" stroke="#ffe7b0"/><text x="116" y="376" fill="#fff" font-size="27" font-family="Arial,'Microsoft YaHei',sans-serif" font-weight="700">库存下单前实时复核</text><text x="74" y="744" fill="#fff" fill-opacity=".72" font-size="24" font-family="Arial,'Microsoft YaHei',sans-serif">分类展示封面 · 具体配置以商品参数为准</text>
</svg>
